# xmcd CD database file
#
# Track frame offsets:
#	150
#	34732
#	51725
#	67742
#	89687
#	119600
#	139017
#	164850
#	194775
#	218447
#	237050
#	258962
#
# Disc length: 3863 seconds
#
# Revision: 2
# Processed by: cddbd v1.5.1PL0 Copyright (c) Steve Scherf et al.
# Submitted via: CDex 1.51
#
DISCID=b70f150c
DTITLE=The Moody Blues - Journey Through Time
DYEAR=1990
DGENRE=Pop
TTITLE0=Nights In White Satin
TTITLE1=Ride My See-Saw
TTITLE2=Voices In The Sky
TTITLE3=Tuesday Afternoon
TTITLE4=Isn't Life Strange
TTITLE5=I'm Just a Singer In a Rock and Roll Band
TTITLE6=Question
TTITLE7=I Know You're Out There Somewhere
TTITLE8=The Voice 
TTITLE9=Gemini Dream
TTITLE10=Your Wildest Dream
TTITLE11=The Other Side of Life
EXTD=YEAR: 1990
EXTT0=
EXTT1=
EXTT2=
EXTT3=
EXTT4=
EXTT5=
EXTT6=
EXTT7=
EXTT8=
EXTT9=
EXTT10=
EXTT11=
PLAYORDER=
